<svg width="20" height="20" viewBox="0 0 20 20" fill="none" xmlns="http://www.w3.org/2000/svg">
<path d="M5.5 4C4.11929 4 3 5.11929 3 6.5V6.63849L10 10.6385L17 6.63848V6.5C17 5.11929 15.8807 4 14.5 4H5.5ZM17 7.72318L10.2797 11.5673C10.1067 11.6666 9.89327 11.6666 9.72034 11.5673L3 7.72318V13.5C3 14.8807 4.11929 16 5.5 16H14.5C15.8807 16 17 14.8807 17 13.5V7.72318ZM2 6.5C2 4.567 3.567 3 5.5 3H14.5C16.433 3 18 4.567 18 6.5V13.5C18 15.433 16.433 17 14.5 17H5.5C3.567 17 2 15.433 2 13.5V6.5Z" fill="currentColor"/>
</svg>
