<svg width="20" height="20" viewBox="0 0 20 20" fill="none" xmlns="http://www.w3.org/2000/svg">
<path d="M17.7404 3.95646C17.9106 4.06504 18.0117 4.2538 18.0117 4.45648V15.4565C18.0117 15.6592 17.9106 15.8479 17.7404 15.9565C17.5703 16.0651 17.3556 16.0769 17.1748 15.988L7.17484 11.076C6.97837 10.9796 6.85161 10.7827 6.84566 10.5647C6.8397 10.3467 6.95544 10.1431 7.14698 10.0367L17.147 4.43668C17.3266 4.33714 17.5451 4.34068 17.7218 4.44842L17.7404 4.45646Z" fill="currentColor"/>
<path d="M4 3.5C4 3.22386 3.77614 3 3.5 3C3.22386 3 3 3.22386 3 3.5V16.5C3 16.7761 3.22386 17 3.5 17C3.77614 17 4 16.7761 4 16.5V3.5Z" fill="currentColor"/>
</svg>
